<?xml version="1.0" encoding="utf-8"?>
<!-- Generator: Adobe Illustrator 24.1.3, SVG Export Plug-In . SVG Version: 6.00 Build 0)  -->
<svg version="1.1" id="Layer_1" xmlns="http://www.w3.org/2000/svg" xmlns:xlink="http://www.w3.org/1999/xlink" x="0px" y="0px"
	 viewBox="0 0 427.1 101.9" style="enable-background:new 0 0 427.1 101.9;" xml:space="preserve">
<style type="text/css">
	.st0{fill:#FFFFFF;}
	.st1{opacity:0.7;fill:#255AEF;}
	.st2{opacity:0.7;fill:#1ED660;}
	.st3{fill:#255AEF;}
	.st4{fill:#1ED660;}
	.st5{opacity:0.5;}
</style>
<g>
	<g>
		<g>
			<g>
				<g>
					<path class="st3" d="M112.1,51c4.7-4.7,12.4-4.7,17.1,0l19.2,19.2c1.7,1.7,4,2.7,6.4,2.7h8.2L135.2,45c-8-8-21-8-29.1,0
						L78.3,72.9h8.2c2.4,0,4.7-1,6.4-2.7L112.1,51z"/>
				</g>
				<g>
					<path class="st3" d="M129.2,22c-4.7,4.7-12.4,4.7-17.1,0L92.9,2.7C91.2,1,88.9,0,86.5,0h-8.2L106.2,28c8,8,21,8,29.1,0L163.1,0
						h-8.2c-2.4,0-4.7,1-6.4,2.7L129.2,22z"/>
				</g>
			</g>
			<path class="st3" d="M279.5,64.1l-28.6,0c-6.9,0-12.6-5.6-12.6-12.6V40.9v-3.1V21.5c0-6.9,5.6-12.6,12.6-12.6l28.6,0
				c2.4,0,4.6-0.9,6.3-2.6L292,0l-41.2,0c-11.8,0-21.4,9.6-21.4,21.4v14.7v8.4v6.9c0,11.8,9.6,21.4,21.4,21.4l41.2,0l-6.2-6.2
				C284.1,65,281.9,64.1,279.5,64.1z"/>
			<path class="st3" d="M346.9,64.1l-28.6,0c-6.9,0-12.6-5.6-12.6-12.6V40.9v-3.1V21.5c0-6.9,5.6-12.6,12.6-12.6l28.6,0
				c2.4,0,4.6-0.9,6.3-2.6l6.2-6.2l-41.2,0c-11.8,0-21.4,9.6-21.4,21.4v14.7v8.4v6.9c0,11.8,9.6,21.4,21.4,21.4l41.2,0l-6.2-6.2
				C351.5,65,349.2,64.1,346.9,64.1z"/>
			<path class="st3" d="M210.8,0.9L182,29.8l12.5-0.4L207.7,16v19.6h-21.8c-6.3,0-12.3,2.5-16.7,6.9l-5.5,5.5c-3.3,3.3-3.3,8.7,0,12
				l0,0l11.5-11.5c2.8-2.8,6.7-4.4,10.7-4.4h21.8v28.8h8.5V3.2C216.2,0.4,212.8-1.1,210.8,0.9z"/>
		</g>
	</g>
	<g class="st5">
		<path d="M9,100.5c-0.5,0.3-1.6,1-3.3,1c-3.2,0-5.7-2.4-5.7-5.7c0-3.3,2.5-5.7,5.7-5.7c3.1,0,5.7,2.4,5.7,5.7c0,2-0.9,3.3-1.5,3.9
			l1.6,1.7H9.9L9,100.5z M9,98.9c0.4-0.4,1.2-1.4,1.2-3c0-2.5-2-4.5-4.4-4.5c-2.5,0-4.5,2-4.5,4.5s2,4.5,4.5,4.5
			c0.7,0,1.6-0.2,2.4-0.7l-2.6-2.7h1.6L9,98.9z"/>
		<path d="M30.6,97.1c0,0.9,0,1.9,0.9,2.7c0.4,0.4,1.2,0.6,1.8,0.6s1.4-0.2,1.8-0.6C36,99,36,98,36,97.1v-6.7h1.2v7
			c0,0.9-0.1,1.8-0.7,2.6c-0.7,0.9-1.8,1.5-3.2,1.5c-1.4,0-2.5-0.6-3.2-1.5c-0.6-0.8-0.7-1.7-0.7-2.6v-7h1.2V97.1z"/>
		<path d="M61.8,98.2h-4.7l-1.3,3.1h-1.3l5-11.5l4.9,11.5h-1.3L61.8,98.2z M61.3,97.1l-1.8-4.4l-1.9,4.4H61.3z"/>
		<path d="M81.7,101.3V89.9l8.5,8.9v-8.5h1.2v11.4l-8.5-8.9v8.5H81.7z"/>
		<path d="M112.8,91.5v9.8h-1.2v-9.8h-2.7v-1.1h6.5v1.1H112.8z"/>
		<path d="M134,97.1c0,0.9,0,1.9,0.9,2.7c0.4,0.4,1.2,0.6,1.8,0.6s1.4-0.2,1.8-0.6c0.9-0.7,0.9-1.7,0.9-2.7v-6.7h1.2v7
			c0,0.9-0.1,1.8-0.7,2.6c-0.7,0.9-1.8,1.5-3.2,1.5c-1.4,0-2.5-0.6-3.2-1.5c-0.6-0.8-0.7-1.7-0.7-2.6v-7h1.2V97.1z"/>
		<path d="M158.8,101.3l1.8-11.6l4.2,9.2l4.3-9.3l1.7,11.6h-1.2l-1-7.6l-3.7,8.1l-3.7-8.1l-1.1,7.6H158.8z"/>
		<path d="M213.7,91.5h-3.8v3.2h3.6v1.1h-3.6v5.4h-1.2v-11h5V91.5z"/>
		<path d="M233.3,90.4c0.7,0,1.8,0,2.7,0.6c0.6,0.4,1.2,1.3,1.2,2.4c0,1.7-1.1,2.9-2.8,3l3.5,4.9h-1.5l-3.3-4.8h-0.3v4.8h-1.2v-11
			H233.3z M232.8,95.4h0.8c1.5,0,2.4-0.7,2.4-2c0-0.6-0.2-1.2-0.9-1.6c-0.5-0.3-1.1-0.3-1.6-0.3h-0.7V95.4z"/>
		<path d="M261.6,98.2H257l-1.3,3.1h-1.3l5-11.5l4.9,11.5h-1.3L261.6,98.2z M261.1,97.1l-1.8-4.4l-1.9,4.4H261.1z"/>
		<path d="M281.2,101.3l1.8-11.6l4.2,9.2l4.3-9.3l1.7,11.6h-1.2l-1-7.6l-3.7,8.1l-3.7-8.1l-1.1,7.6H281.2z"/>
		<path d="M317.2,91.5h-4.5v3.3h4.3v1.1h-4.3v4.3h4.5v1.1h-5.7v-11h5.7V91.5z"/>
		<path d="M335.2,90.4l2.9,8.2l3.4-8.8l3.3,8.8l3.2-8.2h1.3l-4.6,11.5l-3.2-8.8l-3.4,8.8l-4.2-11.5H335.2z"/>
		<path d="M366,95.8c0-3.3,2.5-5.7,5.7-5.7s5.7,2.4,5.7,5.7c0,3.3-2.5,5.7-5.7,5.7C368.6,101.5,366,99.1,366,95.8z M367.3,95.8
			c0,2.5,2,4.5,4.5,4.5c2.5,0,4.4-2,4.4-4.5s-2-4.5-4.4-4.5C369.3,91.3,367.3,93.3,367.3,95.8z"/>
		<path d="M397.2,90.4c0.7,0,1.8,0,2.7,0.6c0.6,0.4,1.2,1.3,1.2,2.4c0,1.7-1.1,2.9-2.8,3l3.5,4.9h-1.5l-3.3-4.8h-0.3v4.8h-1.2v-11
			H397.2z M396.7,95.4h0.8c1.5,0,2.4-0.7,2.4-2c0-0.6-0.2-1.2-0.9-1.6c-0.5-0.3-1.1-0.3-1.6-0.3h-0.7V95.4z"/>
		<path d="M420.7,95.1l4.7-4.7h1.6l-5.1,5.1l5.3,5.8h-1.7l-4.5-5l-0.3,0.3v4.7h-1.2v-11h1.2V95.1z"/>
	</g>
</g>
</svg>
